<svg width="16" height="16" viewBox="0 0 16 16" fill="none" xmlns="http://www.w3.org/2000/svg">
<g clip-path="url(#clip0_9419_9274)">
<path d="M8.66667 0.666667V2C8.66667 2.17681 8.59643 2.34638 8.4714 2.4714C8.34638 2.59643 8.17681 2.66667 8 2.66667C7.82319 2.66667 7.65362 2.59643 7.5286 2.4714C7.40357 2.34638 7.33333 2.17681 7.33333 2V0.666667C7.33333 0.489856 7.40357 0.320286 7.5286 0.195262C7.65362 0.0702379 7.82319 0 8 0C8.17681 0 8.34638 0.0702379 8.4714 0.195262C8.59643 0.320286 8.66667 0.489856 8.66667 0.666667V0.666667ZM8 13.3333C7.82319 13.3333 7.65362 13.4036 7.5286 13.5286C7.40357 13.6536 7.33333 13.8232 7.33333 14V15.3333C7.33333 15.5101 7.40357 15.6797 7.5286 15.8047C7.65362 15.9298 7.82319 16 8 16C8.17681 16 8.34638 15.9298 8.4714 15.8047C8.59643 15.6797 8.66667 15.5101 8.66667 15.3333V14C8.66667 13.8232 8.59643 13.6536 8.4714 13.5286C8.34638 13.4036 8.17681 13.3333 8 13.3333ZM2.66667 8C2.66667 7.82319 2.59643 7.65362 2.4714 7.5286C2.34638 7.40357 2.17681 7.33333 2 7.33333H0.666667C0.489856 7.33333 0.320286 7.40357 0.195262 7.5286C0.0702379 7.65362 0 7.82319 0 8C0 8.17681 0.0702379 8.34638 0.195262 8.4714C0.320286 8.59643 0.489856 8.66667 0.666667 8.66667H2C2.17681 8.66667 2.34638 8.59643 2.4714 8.4714C2.59643 8.34638 2.66667 8.17681 2.66667 8ZM15.3333 7.33333H14C13.8232 7.33333 13.6536 7.40357 13.5286 7.5286C13.4036 7.65362 13.3333 7.82319 13.3333 8C13.3333 8.17681 13.4036 8.34638 13.5286 8.4714C13.6536 8.59643 13.8232 8.66667 14 8.66667H15.3333C15.5101 8.66667 15.6797 8.59643 15.8047 8.4714C15.9298 8.34638 16 8.17681 16 8C16 7.82319 15.9298 7.65362 15.8047 7.5286C15.6797 7.40357 15.5101 7.33333 15.3333 7.33333ZM12.012 1.07867C11.9362 1.03474 11.8526 1.00616 11.7657 0.994583C11.6789 0.983003 11.5907 0.988642 11.5061 1.01118C11.4214 1.03371 11.3421 1.0727 11.2725 1.12592C11.2029 1.17914 11.1446 1.24554 11.1007 1.32133L10.434 2.47533C10.3455 2.62837 10.3215 2.81028 10.3671 2.98105C10.4127 3.15182 10.5243 3.29748 10.6773 3.386C10.7785 3.44514 10.8935 3.47621 11.0107 3.476C11.1277 3.476 11.2426 3.44519 11.344 3.38668C11.4453 3.32817 11.5295 3.24401 11.588 3.14267L12.2547 1.98867C12.343 1.83577 12.367 1.65409 12.3215 1.48348C12.276 1.31288 12.1647 1.1673 12.012 1.07867V1.07867ZM5.32467 12.614C5.17171 12.5255 4.98987 12.5013 4.8191 12.5468C4.64834 12.5923 4.50263 12.7038 4.414 12.8567L3.74733 14.0107C3.65882 14.1636 3.63466 14.3455 3.68016 14.5162C3.72567 14.687 3.83711 14.8327 3.99 14.9213C4.09114 14.9804 4.2062 15.0115 4.32333 15.0113C4.44047 15.0114 4.55557 14.9807 4.65704 14.9222C4.75851 14.8637 4.84277 14.7794 4.90133 14.678L5.568 13.524C5.65625 13.371 5.68019 13.1893 5.63456 13.0187C5.58894 12.8481 5.47749 12.7025 5.32467 12.614V12.614ZM3.14333 4.414L1.98933 3.74733C1.8367 3.6652 1.65808 3.64573 1.49134 3.69307C1.3246 3.74041 1.18285 3.85082 1.09615 4.00091C1.00944 4.15099 0.984603 4.32894 1.02689 4.49704C1.06918 4.66513 1.17527 4.81014 1.32267 4.90133L2.47667 5.568C2.6293 5.65014 2.80792 5.6696 2.97466 5.62226C3.1414 5.57493 3.28315 5.46451 3.36985 5.31443C3.45656 5.16434 3.4814 4.98639 3.43911 4.8183C3.39682 4.65021 3.29073 4.50519 3.14333 4.414V4.414ZM14.6767 11.1007L13.5227 10.434C13.37 10.3519 13.1914 10.3324 13.0247 10.3797C12.8579 10.4271 12.7162 10.5375 12.6295 10.6876C12.5428 10.8377 12.5179 11.0156 12.5602 11.1837C12.6025 11.3518 12.7086 11.4968 12.856 11.588L14.01 12.2547C14.1111 12.3138 14.2262 12.3449 14.3433 12.3447C14.4901 12.3447 14.6327 12.2962 14.7492 12.2069C14.8656 12.1176 14.9493 11.9923 14.9873 11.8505C15.0252 11.7088 15.0154 11.5585 14.9592 11.4229C14.9031 11.2873 14.8038 11.174 14.6767 11.1007V11.1007ZM4.89933 1.32133C4.80814 1.17393 4.66313 1.06784 4.49504 1.02556C4.32694 0.983269 4.14899 1.00811 3.99891 1.09482C3.84882 1.18152 3.73841 1.32327 3.69107 1.49001C3.64373 1.65675 3.6632 1.83537 3.74533 1.988L4.412 3.142C4.47051 3.24334 4.55467 3.3275 4.65601 3.38601C4.75735 3.44452 4.87231 3.47533 4.98933 3.47533C5.10648 3.47554 5.22155 3.44447 5.32267 3.38533C5.47567 3.29681 5.58725 3.15115 5.63288 2.98038C5.67851 2.80961 5.65446 2.62771 5.566 2.47467L4.89933 1.32133ZM11.586 12.8547C11.4948 12.7073 11.3498 12.6012 11.1817 12.5589C11.0136 12.5166 10.8357 12.5414 10.6856 12.6281C10.5355 12.7149 10.4251 12.8566 10.3777 13.0233C10.3304 13.1901 10.3499 13.3687 10.432 13.5213L11.0987 14.6753C11.1899 14.8227 11.3349 14.9288 11.503 14.9711C11.6711 15.0134 11.849 14.9886 11.9991 14.9019C12.1492 14.8151 12.2596 14.6734 12.3069 14.5067C12.3543 14.3399 12.3348 14.1613 12.2527 14.0087L11.586 12.8547ZM13.1913 5.65467C13.3084 5.65466 13.4233 5.62385 13.5247 5.56533L14.6787 4.89867C14.8261 4.80748 14.9322 4.66246 14.9744 4.49437C15.0167 4.32628 14.9919 4.14832 14.9052 3.99824C14.8185 3.84816 14.6767 3.73774 14.51 3.6904C14.3433 3.64307 14.1646 3.66253 14.012 3.74467L12.858 4.41133C12.7312 4.48486 12.6322 4.59811 12.5763 4.73355C12.5204 4.869 12.5106 5.0191 12.5486 5.16064C12.5865 5.30218 12.6701 5.42727 12.7862 5.51657C12.9024 5.60587 13.0448 5.65441 13.1913 5.65467ZM2.47533 10.432L1.32133 11.0987C1.19425 11.172 1.09492 11.2853 1.03877 11.4209C0.982614 11.5565 0.972764 11.7068 1.01075 11.8485C1.04873 11.9903 1.13242 12.1156 1.24884 12.2049C1.36527 12.2942 1.50792 12.3427 1.65467 12.3427C1.77181 12.3429 1.88688 12.3118 1.988 12.2527L3.142 11.586C3.2894 11.4948 3.39549 11.3498 3.43778 11.1817C3.48006 11.0136 3.45522 10.8357 3.36852 10.6856C3.28181 10.5355 3.14007 10.4251 2.97333 10.3777C2.80659 10.3304 2.62796 10.3499 2.47533 10.432V10.432Z" fill="#466EFA"/>
</g>
<defs>
<clipPath id="clip0_9419_9274">
<rect width="16" height="16" fill="white"/>
</clipPath>
</defs>
</svg>
